<svg xmlns="http://www.w3.org/2000/svg" style="display: none;">
  <defs>
    <symbol id="katakana-project" viewBox="0 0 751 136">
      <text x="10" y="100" font-family="Arial, sans-serif" font-size="90" font-weight="bold" fill="currentColor">OUMAYMA</text>
    </symbol>
    <symbol id="katakana-profile" viewBox="0 0 136 766">
      <path d="M33 651.3c-.2-9-7.2-16.1-16.3-16.1-9 0-16.3 7.2-16.3 16.2A16 16 0 0 0 16 667.6V741c0 14.7-.3 18.7-1.2 24.2h26c-.6-5-.8-8.5-.9-23.8v-60.2c33.6 8.2 59 34.2 71 72.5 9-9.4 14.5-13.4 24.2-18.2-20.5-45.8-49.5-70.8-95.8-82.6l-3.7-.9-1.5-.4-.5-.2-.6-.1Zm-24.5.1c0-4.4 3.8-8.2 8.2-8.2a8.2 8.2 0 0 1 0 16.4 8.3 8.3 0 0 1-8.2-8.2Zm111-104.5h9.7v-26c-5.8.7-12.7 1-23.8 1h-73c-6.8 0-12-.2-17-.5.6 6.8.6 9 .6 17.9v77.6c0 9.5-.1 12.4-.6 17.4 6-.4 10.4-.6 16.6-.6h74c10.7 0 15.6.3 23.5 1.2v-26.2h-10v-61.8Zm-23 0v61.8H39v-61.8h57.5Zm-83-143.3c1.3 3.2 1.8 5.8 1.8 10.5v68.4a139 139 0 0 1-1.2 24.7h26c-.6-7.7-.8-10.3-.8-24.2v-59.8a89 89 0 0 1 42.7 24 116.1 116.1 0 0 1 28.2 48.4 75.8 75.8 0 0 1 24.2-18.1c-11.7-25.3-23.2-41.5-39.2-54.9-16.4-13.8-34.4-22.4-61.2-28.9a19.1 19.1 0 0 1-8-3l-12.6 13Zm13.9-106c7.3 4.4 17 14.5 25.8 26.7 12.2 17 21.1 36.2 27.3 58.4a70 70 0 0 1 20.5-12.3 172.2 172.2 0 0 0-17-37.6h30c10.6 0 14.3.3 20 1v-25.6c-5.2.7-10.6.9-20 .9H69.8a160.4 160.4 0 0 0-23.6-26.7c-3.4-3.1-3.4-3.1-5-5l-13.8 20.2ZM83 262.3c-.8-8.8-.9-13.5-.9-29.7v-68.5c0-16.4.1-22.8.9-29.7H55.2c1 9.7 1.3 15.1 1.3 29.5v68.9c0 15-.3 22.7-1.3 29.5H83ZM8.8 114c3.7-.4 7-.6 13.2-.6 37.3 0 55.2 2.3 69.3 9 9.5 4.6 15.6 9 23 17.2a78.1 78.1 0 0 1 20-20.6 95.8 95.8 0 0 0-28.7-20c-15.7-6.9-31.7-9.8-61.8-10.6-28.5-1-28.5-1-33.4-1.6L8.8 114Zm-.7-41a90 90 0 0 1 11.2-.6h5.2l85.2.7c6 0 8.4.3 12.1 1.6l13-12.4c-1.2-1.8-1.6-3-3-7A86.2 86.2 0 0 0 115.4 25 88.2 88.2 0 0 0 78.8.2a98.4 98.4 0 0 1-19 19.2 73 73 0 0 1 24.6 11.2 55 55 0 0 1 15.8 17.3l-75.4-.7A103 103 0 0 1 8 46v27.1Z" />
    </symbol>
  </defs>
</svg>
